<?xml version="1.0" encoding="utf-8"?>
<!-- Generator: Adobe Illustrator 22.0.1, SVG Export Plug-In . SVG Version: 6.00 Build 0)  -->
<svg version="1.1" id="Layer_1" xmlns="http://www.w3.org/2000/svg" xmlns:xlink="http://www.w3.org/1999/xlink" x="0px" y="0px"
	 viewBox="0 0 45 45" style="enable-background:new 0 0 45 45;" xml:space="preserve">
<style type="text/css">
	.st0{fill:#FFFFFF;}
</style>
<path class="st0" d="M8.7,40.6h8.7v1.5H8.7V40.6z"/>
<path class="st0" d="M12.3,24.7c-0.4,0-0.7-0.3-0.7-0.7h-1.5c0,0.9,0.6,1.7,1.5,2v0.9h1.5V26c0.8-0.3,1.5-1.1,1.5-2
	c0-1.2-1-2.2-2.2-2.2c-0.4,0-0.7-0.3-0.7-0.7s0.3-0.7,0.7-0.7c0.4,0,0.7,0.3,0.7,0.7h1.5c0-0.9-0.6-1.7-1.5-2v-0.9h-1.5V19
	c-0.8,0.3-1.5,1.1-1.5,2c0,1.2,1,2.2,2.2,2.2c0.4,0,0.7,0.3,0.7,0.7C13.1,24.4,12.7,24.7,12.3,24.7z"/>
<path class="st0" d="M12.3,16c-1.5,0-2.8,0.5-4,1.4l0.9,1.1c0.9-0.7,2-1.1,3.1-1.1c2.8,0,5.1,2.3,5.1,5.1c0,1.1-0.4,2.2-1.1,3.1
	l1.1,0.9c0.9-1.2,1.4-2.5,1.4-4C18.9,18.9,15.9,16,12.3,16z"/>
<path class="st0" d="M8.3,19.4l-1.1-0.9c-0.9,1.2-1.4,2.5-1.4,4c0,3.6,2.9,6.5,6.5,6.5c1.5,0,2.8-0.5,4-1.4l-0.9-1.1
	c-0.9,0.7-2,1.1-3.1,1.1c-2.8,0-5.1-2.3-5.1-5.1C7.3,21.4,7.6,20.3,8.3,19.4z"/>
<path class="st0" d="M42.8,13.1H26.1V3.6c0-2-1.6-3.6-3.6-3.6H3.6C1.6,0,0,1.6,0,3.6v37.7c0,2,1.6,3.6,3.6,3.6h18.9
	c2,0,3.6-1.6,3.6-3.6v-9.4h16.7c1.2,0,2.2-1,2.2-2.2V15.2C45,14,44,13.1,42.8,13.1z M43.5,15.2v2.2H20.3v-2.2c0-0.4,0.3-0.7,0.7-0.7
	h21.8C43.2,14.5,43.5,14.8,43.5,15.2z M18.9,27.1c-1.5,2.1-3.9,3.4-6.5,3.4c-4.4,0-8-3.6-8-8s3.6-8,8-8c2.6,0,5,1.3,6.5,3.4V27.1z
	 M3.6,1.5h18.9c1.2,0,2.2,1,2.2,2.2v0.7H1.5V3.6C1.5,2.4,2.4,1.5,3.6,1.5z M22.5,43.5H3.6c-1.2,0-2.2-1-2.2-2.2v-2.2h23.2v2.2
	C24.7,42.6,23.7,43.5,22.5,43.5z M24.7,37.7H1.5V5.8h23.2v7.3H21c-1.2,0-2.2,1-2.2,2.2v0.5c-1.7-1.7-4.1-2.6-6.5-2.6
	c-5.2,0-9.4,4.2-9.4,9.4s4.2,9.4,9.4,9.4c2.5,0,4.8-1,6.5-2.6v0.5c0,1.2,1,2.2,2.2,2.2h3.6V37.7z M42.8,30.5H21
	c-0.4,0-0.7-0.3-0.7-0.7V18.9h23.2v10.9C43.5,30.2,43.2,30.5,42.8,30.5z"/>
<path class="st0" d="M38.5,21.8c-0.7,0-1.3,0.2-1.8,0.5c-0.5-0.3-1.2-0.5-1.8-0.5c-2,0-3.6,1.6-3.6,3.6s1.6,3.6,3.6,3.6
	c0.7,0,1.3-0.2,1.8-0.5c0.5,0.3,1.2,0.5,1.8,0.5c2,0,3.6-1.6,3.6-3.6S40.5,21.8,38.5,21.8z M36.7,26.6c-0.2-0.3-0.4-0.8-0.4-1.2
	s0.1-0.9,0.4-1.2c0.2,0.3,0.4,0.8,0.4,1.2S36.9,26.3,36.7,26.6z M32.7,25.4c0-1.2,1-2.2,2.2-2.2c0.2,0,0.4,0,0.7,0.1
	c-0.4,0.6-0.7,1.3-0.7,2.1s0.2,1.5,0.7,2.1c-0.2,0.1-0.4,0.1-0.7,0.1C33.6,27.6,32.7,26.6,32.7,25.4z M38.5,27.6
	c-0.2,0-0.4,0-0.7-0.1c0.4-0.6,0.7-1.3,0.7-2.1s-0.2-1.5-0.7-2.1c0.2-0.1,0.4-0.1,0.7-0.1c1.2,0,2.2,1,2.2,2.2
	C40.6,26.6,39.7,27.6,38.5,27.6z"/>
<path class="st0" d="M21.8,26.9h1.5v1.5h-1.5V26.9z"/>
<path class="st0" d="M24.7,26.9h1.5v1.5h-1.5V26.9z"/>
<path class="st0" d="M27.6,26.9H29v1.5h-1.5V26.9z"/>
<path class="st0" d="M30.5,33.4h7.3v1.5h-7.3V33.4z"/>
<path class="st0" d="M27.6,33.4H29v1.5h-1.5V33.4z"/>
<path class="st0" d="M31.9,37.7h10.3l-0.7,1l1.2,0.8l2.2-3.3h-13V37.7z"/>
<path class="st0" d="M34.8,10.2h7.3v1.5h-7.3V10.2z"/>
<path class="st0" d="M43.5,10.2H45v1.5h-1.5V10.2z"/>
<path class="st0" d="M41.4,7.3h-9.5l0.7-1l-1.2-0.8l-2.2,3.3h12.2V7.3z"/>
</svg>
