<svg id="Capa_1" data-name="Capa 1" xmlns="http://www.w3.org/2000/svg" viewBox="0 0 512 512"><defs><style>.cls-1{fill:#3bd98f;}</style></defs><title>exit</title><g id="c142_x" data-name="c142 x"><path class="cls-1" d="M256,0C114.59,0,0,114.63,0,256S114.59,512,256,512,512,397.35,512,256,397.39,0,256,0ZM366,325.33,325.25,366s-64.5-69.2-69.31-69.2S186.67,366,186.67,366l-40.79-40.71s69.28-63.57,69.28-69.23-69.28-69.33-69.28-69.33L186.67,146s65.05,69.24,69.27,69.24S325.25,146,325.25,146L366,186.77s-69.3,64.5-69.3,69.33C296.73,260.7,366,325.33,366,325.33Z"/></g></svg>