<svg id="Capa_1" data-name="Capa 1" xmlns="http://www.w3.org/2000/svg" viewBox="0 0 95.33 79.61"><defs><style>.cls-1{fill:#3ad88f;}</style></defs><title>left-quote</title><path class="cls-1" d="M30.51,43.94a25.09,25.09,0,0,0-7-1,22,22,0,0,0-8.75,1.79c2.2-8.05,7.48-21.95,18-23.51a2.49,2.49,0,0,0,2-1.8l2.3-8.23A2.48,2.48,0,0,0,35.07,8a16.91,16.91,0,0,0-2.36-.16C20.07,7.86,7.56,21.05,2.28,39.93-.82,51-1.73,67.67,5.91,78.16c4.27,5.86,10.5,9,18.52,9.31h.1a22.18,22.18,0,0,0,6-43.53Z" transform="translate(0 -7.86)"/><path class="cls-1" d="M92.47,54.41A22.25,22.25,0,0,0,79.14,43.94a25.14,25.14,0,0,0-7-1,22,22,0,0,0-8.75,1.79c2.2-8.05,7.48-21.95,18-23.51a2.52,2.52,0,0,0,2-1.8l2.3-8.23a2.52,2.52,0,0,0-.32-2.05A2.49,2.49,0,0,0,83.69,8a16.77,16.77,0,0,0-2.35-.16C68.7,7.86,56.19,21.05,50.9,39.93c-3.09,11.08-4,27.74,3.63,38.23,4.28,5.86,10.51,9,18.53,9.31h.1A22.17,22.17,0,0,0,92.47,54.41Z" transform="translate(0 -7.86)"/></svg>