<?xml version="1.0" encoding="utf-8"?>
<!-- Generator: Adobe Illustrator 22.0.1, SVG Export Plug-In . SVG Version: 6.00 Build 0)  -->
<svg version="1.1" id="Layer_1" xmlns="http://www.w3.org/2000/svg" xmlns:xlink="http://www.w3.org/1999/xlink" x="0px" y="0px"
	 viewBox="0 0 496 496" style="enable-background:new 0 0 496 496;" xml:space="preserve">
<style type="text/css">
	.st0{fill:#FFFFFF;}
</style>
<path class="st0" d="M432,248.8h-16c0,92.6-75.4,168-168,168s-168-75.4-168-168c0-85.6,64.4-156.3,147.3-166.6l-16.9,16.9l11.3,11.3
	l37.7-37.7l-37.7-37.7l-11.3,11.3l19.3,19.3C136.8,75,64,153.6,64,248.8c0,101.5,82.5,184,184,184S432,350.3,432,248.8z"/>
<path class="st0" d="M191.8,7.1L207.4,4l3.1,15.7l-15.7,3.1L191.8,7.1z"/>
<path class="st0" d="M145.7,22.7l14.8-6.1l6.1,14.8l-14.8,6.1L145.7,22.7z"/>
<path class="st0" d="M103.6,47l13.3-8.9l8.9,13.3l-13.3,8.9L103.6,47z"/>
<path class="st0" d="M67,79.1l11.3-11.3l11.3,11.3L78.3,90.4L67,79.1z"/>
<path class="st0" d="M224,144.8v8.6c-27.1,3.9-48,27.3-48,55.4v8c0,30.9,25.1,56,56,56h32c4.4,0,8,3.6,8,8v8c0,4.4-3.6,8-8,8h-32
	c-4.4,0-8-3.6-8-8v-8h-48v8c0,28.2,20.9,51.5,48,55.4v8.6c0,13.2,10.8,24,24,24s24-10.8,24-24v-8.6c27.1-3.9,48-27.3,48-55.4v-8
	c0-30.9-25.1-56-56-56h-32c-4.4,0-8-3.6-8-8v-8c0-4.4,3.6-8,8-8h32c4.4,0,8,3.6,8,8v8h48v-8c0-28.2-20.9-51.5-48-55.4v-8.6
	c0-13.2-10.8-24-24-24S224,131.6,224,144.8z M256,144.8v24h8c19.3,0,35.5,13.8,39.2,32h-16.6c-3.3-9.3-12.2-16-22.6-16h-32
	c-13.2,0-24,10.8-24,24v8c0,13.2,10.8,24,24,24h32c22.1,0,40,17.9,40,40v8c0,22.1-17.9,40-40,40h-8v24c0,4.4-3.6,8-8,8s-8-3.6-8-8
	v-24h-8c-19.3,0-35.5-13.8-39.2-32h16.6c3.3,9.3,12.2,16,22.6,16h32c13.2,0,24-10.8,24-24v-8c0-13.2-10.8-24-24-24h-32
	c-22.1,0-40-17.9-40-40v-8c0-22.1,17.9-40,40-40h8v-24c0-4.4,3.6-8,8-8S256,140.4,256,144.8z"/>
<path class="st0" d="M68.4,101.9L56.1,91.7C19.9,135.9,0,191.7,0,248.8c0,61.1,22.4,119.8,63.2,165.3l11.9-10.7
	C37,360.9,16,306,16,248.8C16,195.3,34.6,143.2,68.4,101.9z"/>
<path class="st0" d="M285.4,477.9l15.7-3.1l3.1,15.7l-15.7,3.1L285.4,477.9z"/>
<path class="st0" d="M329.4,466.2l14.8-6.1l6.1,14.8l-14.8,6.1L329.4,466.2z"/>
<path class="st0" d="M370.2,446.1l13.3-8.9l8.9,13.3l-13.3,8.9L370.2,446.1z"/>
<path class="st0" d="M406.4,418.5l11.3-11.3l11.3,11.3l-11.3,11.3L406.4,418.5z"/>
<path class="st0" d="M432.8,83.5l-11.9,10.7C459,136.7,480,191.6,480,248.8c0,53.5-18.6,105.6-52.4,146.9l12.4,10.1
	C476.1,361.7,496,306,496,248.8C496,187.7,473.6,129,432.8,83.5z"/>
</svg>
