<?xml version="1.0" encoding="iso-8859-1"?>
<!-- Generator: Adobe Illustrator 19.0.0, SVG Export Plug-In . SVG Version: 6.00 Build 0)  -->
<svg version="1.1" id="Capa_1" xmlns="http://www.w3.org/2000/svg" xmlns:xlink="http://www.w3.org/1999/xlink" x="0px" y="0px"
	 viewBox="0 0 512 512" style="enable-background:new 0 0 512 512;" xml:space="preserve">
<g>
	<g>
		<path d="M316,356c-5.52,0-10,4.48-10,10c0,5.52,4.48,10,10,10c5.52,0,10-4.48,10-10C326,360.48,321.52,356,316,356z"/>
	</g>
</g>
<g>
	<g>
		<path d="M482,16H30C13.458,16,0,29.458,0,46v380c0,16.542,13.458,30,30,30h33v30c0,5.522,4.478,10,10,10h83
			c5.522,0,10-4.478,10-10v-30h180v30c0,5.522,4.478,10,10,10h83c5.522,0,10-4.478,10-10v-30h33c16.542,0,30-13.458,30-30V46
			C512,29.458,498.542,16,482,16z M146,476H83v-20h63V476z M429,476h-63v-20h63V476z M492,426c0,5.514-4.486,10-10,10H30
			c-5.514,0-10-4.486-10-10V46c0-5.514,4.486-10,10-10h452c5.514,0,10,4.486,10,10V426z"/>
	</g>
</g>
<g>
	<g>
		<path d="M439,56H73c-5.522,0-10,4.477-10,10v51.72c-11.639,4.128-20,15.243-20,28.28v40c0,13.036,8.361,24.152,20,28.28v43.44
			c-11.639,4.128-20,15.243-20,28.28v40c0,13.036,8.361,24.152,20,28.28V406c0,5.523,4.478,10,10,10h366c5.522,0,10-4.477,10-10V66
			C449,60.477,444.522,56,439,56z M63,146c0-5.514,4.486-10,10-10c5.52,0,10,4.478,10,10v40c0,5.514-4.486,10-10,10s-10-4.486-10-10
			V146z M73,336c-5.514,0-10-4.486-10-10v-40c0-5.514,4.486-10,10-10c5.52,0,10,4.478,10,10v40C83,331.514,78.514,336,73,336z
			 M429,396H83v-41.72c11.639-4.128,20-15.243,20-28.28v-40c0-13.325-8.605-24.276-20-28.296V214.28
			c11.639-4.128,20-15.243,20-28.28v-40c0-13.325-8.605-24.276-20-28.296V76h346V396z"/>
	</g>
</g>
<g>
	<g>
		<path d="M216,136c-49.698,0-90,40.279-90,90c0,49.694,40.275,90,90,90c49.698,0,90-40.279,90-90C306,176.306,265.725,136,216,136z
			 M272.065,267.921l-6.564-6.563c-3.906-3.905-10.238-3.905-14.143,0c-3.905,3.905-3.905,10.237,0,14.142l6.563,6.563
			c-9.387,7.047-20.307,11.57-31.922,13.223V286c0-5.523-4.478-10-10-10c-5.522,0-10,4.477-10,10v9.287
			c-11.615-1.653-22.536-6.176-31.922-13.222l6.564-6.563c3.905-3.905,3.905-10.237,0-14.142c-3.905-3.905-10.235-3.905-14.143,0
			l-6.563,6.563c-7.047-9.387-11.57-20.307-13.222-31.922H156c5.522,0,10-4.477,10-10c0-5.523-4.478-10.001-10-10.001h-9.287
			c1.652-11.616,6.176-22.536,13.222-31.922l6.564,6.563c3.905,3.904,10.237,3.906,14.143,0c3.905-3.905,3.905-10.237,0-14.142
			l-6.563-6.563c9.387-7.047,20.307-11.57,31.922-13.223V166c0,5.523,4.478,10,10,10c5.522,0,10-4.477,10-10v-9.287
			c11.615,1.653,22.536,6.176,31.922,13.222l-6.564,6.563c-3.905,3.905-3.905,10.237,0,14.142c3.905,3.905,10.235,3.906,14.143,0
			l6.563-6.563c7.047,9.387,11.57,20.307,13.222,31.922H276c-5.522,0-10,4.477-10,10c0,5.523,4.478,9.9,10,9.9h9.287
			C283.635,247.515,279.111,258.535,272.065,267.921z"/>
	</g>
</g>
<g>
	<g>
		<path d="M216,196c-16.542,0-30,13.458-30,30s13.458,30,30,30s30-13.458,30-30S232.542,196,216,196z M216,236
			c-5.514,0-10-4.486-10-10c0-5.514,4.486-10,10-10c5.514,0,10,4.486,10,10C226,231.514,221.514,236,216,236z"/>
	</g>
</g>
<g>
	<g>
		<path d="M376,136c-16.542,0-30,13.458-30,30v120c0,16.542,13.458,30,30,30s30-13.458,30-30V166C406,149.425,392.576,136,376,136z
			 M386,286c0,5.514-4.486,10-10,10c-5.514,0-10-4.486-10-10V166c0-5.514,4.486-10,10-10c5.521,0,10,4.479,10,10V286z"/>
	</g>
</g>
<g>
	<g>
		<path d="M276,356h-80c-5.522,0-10,4.477-10,10s4.478,10,10,10h80c5.522,0,10-4.477,10-10S281.522,356,276,356z"/>
	</g>
</g>
<g>
</g>
<g>
</g>
<g>
</g>
<g>
</g>
<g>
</g>
<g>
</g>
<g>
</g>
<g>
</g>
<g>
</g>
<g>
</g>
<g>
</g>
<g>
</g>
<g>
</g>
<g>
</g>
<g>
</g>
</svg>
