<svg xmlns="http://www.w3.org/2000/svg" xmlns:xlink="http://www.w3.org/1999/xlink" viewBox="738 123.5 63.5 63.5">
  <defs>
    <style>
      .cls-1 {
        fill: #fff;
      }

      .cls-2 {
        fill: #58a0ff;
      }

      .cls-3 {
        filter: url(#Ellipse_50);
      }
    </style>
    <filter id="Ellipse_50" x="738" y="123.5" width="63.5" height="63.5" filterUnits="userSpaceOnUse">
      <feOffset dy="3" input="SourceAlpha"/>
      <feGaussianBlur stdDeviation="3" result="blur"/>
      <feFlood flood-opacity="0.161"/>
      <feComposite operator="in" in2="blur"/>
      <feComposite in="SourceGraphic"/>
    </filter>
  </defs>
  <g id="Group_4" data-name="Group 4" transform="translate(-55 -101)">
    <g class="cls-3" transform="matrix(1, 0, 0, 1, 55, 101)">
      <circle id="Ellipse_50-2" data-name="Ellipse 50" class="cls-1" cx="22.75" cy="22.75" r="22.75" transform="translate(747 129.5)"/>
    </g>
    <rect id="Rectangle_5" data-name="Rectangle 5" class="cls-2" width="21.577" height="29.243" rx="3" transform="translate(814.196 238.783)"/>
    <ellipse id="Ellipse_41" data-name="Ellipse 41" class="cls-1" cx="2.052" cy="2.052" rx="2.052" ry="2.052" transform="translate(816.467 262.218)"/>
    <ellipse id="Ellipse_42" data-name="Ellipse 42" class="cls-1" cx="2.052" cy="2.052" rx="2.052" ry="2.052" transform="translate(816.467 256.803)"/>
    <ellipse id="Ellipse_43" data-name="Ellipse 43" class="cls-1" cx="2.052" cy="2.052" rx="2.052" ry="2.052" transform="translate(816.467 251.389)"/>
    <ellipse id="Ellipse_44" data-name="Ellipse 44" class="cls-1" cx="2.052" cy="2.052" rx="2.052" ry="2.052" transform="translate(822.845 262.218)"/>
    <ellipse id="Ellipse_45" data-name="Ellipse 45" class="cls-1" cx="2.052" cy="2.052" rx="2.052" ry="2.052" transform="translate(822.845 256.803)"/>
    <ellipse id="Ellipse_46" data-name="Ellipse 46" class="cls-1" cx="2.052" cy="2.052" rx="2.052" ry="2.052" transform="translate(822.845 251.389)"/>
    <ellipse id="Ellipse_47" data-name="Ellipse 47" class="cls-1" cx="2.052" cy="2.052" rx="2.052" ry="2.052" transform="translate(829.222 262.218)"/>
    <ellipse id="Ellipse_48" data-name="Ellipse 48" class="cls-1" cx="2.052" cy="2.052" rx="2.052" ry="2.052" transform="translate(829.222 256.803)"/>
    <ellipse id="Ellipse_49" data-name="Ellipse 49" class="cls-1" cx="2.052" cy="2.052" rx="2.052" ry="2.052" transform="translate(829.222 251.389)"/>
    <rect id="Rectangle_6" data-name="Rectangle 6" class="cls-1" width="18.59" height="9.073" rx="2" transform="translate(815.5 240.635)"/>
  </g>
</svg>
